<svg id="Layer_1" data-name="Layer 1" xmlns="http://www.w3.org/2000/svg" viewBox="0 0 473.16 440.05"><defs><style>.cls-1{fill:#f0f0f0;}.cls-2{fill:#e0e0e0;}.cls-3,.cls-7{fill:#585858;}.cls-10,.cls-12,.cls-4{opacity:0.5;}.cls-10,.cls-12,.cls-19,.cls-20,.cls-23,.cls-5,.cls-6,.cls-7,.cls-8,.cls-9{isolation:isolate;}.cls-16,.cls-5,.cls-7{opacity:0.7;}.cls-6{opacity:0.3;}.cls-23,.cls-8{opacity:0.6;}.cls-9{opacity:0.2;}.cls-11{fill:#fafafa;}.cls-12,.cls-18,.cls-23{fill:#fff;}.cls-13,.cls-20{fill:#37474f;}.cls-14{opacity:0.8;}.cls-15{fill:#455a64;}.cls-17{opacity:0.4;}.cls-19{opacity:0.15;}.cls-20{opacity:0.9;}.cls-21{fill:#263238;}.cls-22{fill:#f5f5f5;}.cls-24{fill:#ebebeb;}.cls-25{opacity:0.65;}</style></defs><g id="freepik--Floor--inject-129"><ellipse id="freepik--floor--inject-129-2" data-name="freepik--floor--inject-129" class="cls-1" cx="236.58" cy="303.46" rx="236.58" ry="136.59"/></g><g id="freepik--Shadows--inject-129"><path id="freepik--shadow--inject-129" class="cls-2" d="M66,385.55,26.72,362.88c-1.39-.8-1.39-2.1,0-2.9L243.14,235a5.57,5.57,0,0,1,5,0l39.27,22.67c1.38.8,1.38,2.1,0,2.9L71,385.55A5.57,5.57,0,0,1,66,385.55Z" transform="translate(-12.47 -40.59)"/></g><g id="freepik--Device--inject-129"><g id="freepik--PC--inject-129"><g id="freepik--Monitor--inject-129"><path class="cls-3" d="M202.19,350.05l31.62-18.28c3.26-1.89,4.89-4.35,4.89-6.82v-4.4l-38-21.55a7,7,0,0,1-3.15-5.46v-39l-55.23,31.91v39a7,7,0,0,0,3.15,5.45L178.59,350C185.11,353.81,195.68,353.81,202.19,350.05Z" transform="translate(-12.47 -40.59)"/><g class="cls-4"><path d="M202.19,350.05l31.62-18.28c3.26-1.89,4.89-4.35,4.89-6.82v-4.4l-38-21.55a7,7,0,0,1-3.15-5.46v-39l-55.23,31.91v39a7,7,0,0,0,3.15,5.45L178.59,350C185.11,353.81,195.68,353.81,202.19,350.05Z" transform="translate(-12.47 -40.59)"/></g><path class="cls-3" d="M155.55,332.36v4.38l-10.12-5.83a7,7,0,0,1-3.15-5.46v-39l10.53-6.07c.21,2.67.45,5.43.67,8.12l-7.38,4.27v30.46a6.92,6.92,0,0,0,3.14,5.45Z" transform="translate(-12.47 -40.59)"/><path class="cls-5" d="M155.55,332.36v4.38l-10.12-5.83a7,7,0,0,1-3.15-5.46v-39l10.53-6.07c.21,2.67.45,5.43.67,8.12l-7.38,4.27v30.46a6.92,6.92,0,0,0,3.14,5.45Z" transform="translate(-12.47 -40.59)"/><path class="cls-3" d="M146.1,323.26a6.94,6.94,0,0,0,3.15,5.45l29.33,16.94c6.52,3.77,17.09,3.77,23.61,0l31.64-18.28c6.52-3.76,6.52-9.86,0-13.62L204.48,296.8a6.94,6.94,0,0,1-3.15-5.45V260.89L146.1,292.8Z" transform="translate(-12.47 -40.59)"/><path class="cls-6" d="M146.1,323.26a6.94,6.94,0,0,0,3.15,5.45l29.33,16.94c6.52,3.77,17.09,3.77,23.61,0l31.64-18.28c6.52-3.76,6.52-9.86,0-13.62L204.48,296.8a6.94,6.94,0,0,1-3.15-5.45V260.89L146.1,292.8Z" transform="translate(-12.47 -40.59)"/><path class="cls-7" d="M210.89,300.51h0l-6.41-3.7a6.94,6.94,0,0,1-3.15-5.45V260.89L146.1,292.8v30.46a6.94,6.94,0,0,0,3.15,5.45l6.3,3.64Z" transform="translate(-12.47 -40.59)"/><path class="cls-8" d="M210.89,300.51h0l-6.41-3.7a6.94,6.94,0,0,1-3.15-5.45V260.89L146.1,292.8v30.46a6.94,6.94,0,0,0,3.15,5.45l6.3,3.64Z" transform="translate(-12.47 -40.59)"/><path class="cls-3" d="M238.71,320.56V325c0,2.47-1.64,4.92-4.89,6.81L202.2,350a23.59,23.59,0,0,1-11.27,2.8v-4.38a23.59,23.59,0,0,0,11.27-2.8l31.62-18.29C237.07,325.5,238.71,323,238.71,320.56Z" transform="translate(-12.47 -40.59)"/><path class="cls-9" d="M238.71,320.56V325c0,2.47-1.64,4.92-4.89,6.81L202.2,350a23.59,23.59,0,0,1-11.27,2.8v-4.38a23.59,23.59,0,0,0,11.27-2.8l31.62-18.29C237.07,325.5,238.71,323,238.71,320.56Z" transform="translate(-12.47 -40.59)"/><path class="cls-3" d="M57.42,365.32a8.44,8.44,0,0,0,7.63-.14L278.63,241.87a8.72,8.72,0,0,0,3.93-6.82V48.11a8.41,8.41,0,0,0-3.69-6.67,8.42,8.42,0,0,0-7.62.14L57.67,164.89a8.68,8.68,0,0,0-3.93,6.81v187A8.48,8.48,0,0,0,57.42,365.32Z" transform="translate(-12.47 -40.59)"/><path class="cls-6" d="M57.42,365.32a8.44,8.44,0,0,0,7.63-.14L278.63,241.87a8.72,8.72,0,0,0,3.93-6.82V48.11a8.41,8.41,0,0,0-3.69-6.67,8.42,8.42,0,0,0-7.62.14L57.67,164.89a8.68,8.68,0,0,0-3.93,6.81v187A8.48,8.48,0,0,0,57.42,365.32Z" transform="translate(-12.47 -40.59)"/><path class="cls-3" d="M65.05,365.17,278.63,241.86a8.69,8.69,0,0,0,3.94-6.81V48.1c0-2.51-1.77-3.52-3.94-2.27L65.05,169.14A8.74,8.74,0,0,0,61.12,176V362.9C61.12,365.41,62.88,366.43,65.05,365.17Z" transform="translate(-12.47 -40.59)"/><path class="cls-3" d="M65.05,365.17,278.63,241.86a8.69,8.69,0,0,0,3.94-6.81V48.1c0-2.51-1.77-3.52-3.94-2.27L65.05,169.14A8.74,8.74,0,0,0,61.12,176V362.9C61.12,365.41,62.88,366.43,65.05,365.17Z" transform="translate(-12.47 -40.59)"/><path class="cls-10" d="M65.05,365.17,278.63,241.86a8.69,8.69,0,0,0,3.94-6.81V48.1c0-2.51-1.77-3.52-3.94-2.27L65.05,169.14A8.74,8.74,0,0,0,61.12,176V362.9C61.12,365.41,62.88,366.43,65.05,365.17Z" transform="translate(-12.47 -40.59)"/><path class="cls-3" d="M64.47,365.47a8.47,8.47,0,0,1-7-.15,8.4,8.4,0,0,1-3.69-6.68v-21l7.38,4.27v21C61.11,365.2,62.56,366.23,64.47,365.47Z" transform="translate(-12.47 -40.59)"/><path class="cls-5" d="M64.47,365.47a8.47,8.47,0,0,1-7-.15,8.4,8.4,0,0,1-3.69-6.68v-21l7.38,4.27v21C61.11,365.2,62.56,366.23,64.47,365.47Z" transform="translate(-12.47 -40.59)"/><path class="cls-3" d="M61.12,341.88v21c0,2.51,1.76,3.53,3.93,2.27L278.63,241.86a8.69,8.69,0,0,0,3.94-6.81V214Z" transform="translate(-12.47 -40.59)"/><g class="cls-4"><path d="M61.12,341.88v21c0,2.51,1.76,3.53,3.93,2.27L278.63,241.86a8.69,8.69,0,0,0,3.94-6.81V214Z" transform="translate(-12.47 -40.59)"/></g><path class="cls-11" d="M68.5,326.37v-148a5.18,5.18,0,0,1,2.36-4.09l202-116.61c1.3-.75,2.36-.14,2.36,1.37V207a5.23,5.23,0,0,1-2.36,4.09l-202,116.6C69.55,328.48,68.5,327.87,68.5,326.37Z" transform="translate(-12.47 -40.59)"/><path class="cls-3" d="M171.84,286.48a8.14,8.14,0,0,0-3.69,6.39c0,2.35,1.65,3.31,3.69,2.13a8.14,8.14,0,0,0,3.69-6.39C175.53,286.25,173.88,285.3,171.84,286.48Z" transform="translate(-12.47 -40.59)"/><path class="cls-12" d="M171.84,286.48a8.14,8.14,0,0,0-3.69,6.39c0,2.35,1.65,3.31,3.69,2.13a8.14,8.14,0,0,0,3.69-6.39C175.53,286.25,173.88,285.3,171.84,286.48Z" transform="translate(-12.47 -40.59)"/><path class="cls-3" d="M62.27,172.06A8.32,8.32,0,0,0,61.11,176V341.88l-7.38-4.27V171.7a8.35,8.35,0,0,1,1.16-3.89Z" transform="translate(-12.47 -40.59)"/><path class="cls-5" d="M62.27,172.06A8.32,8.32,0,0,0,61.11,176V341.88l-7.38-4.27V171.7a8.35,8.35,0,0,1,1.16-3.89Z" transform="translate(-12.47 -40.59)"/></g></g><g id="freepik--Keyboard--inject-129"><path id="freepik--shadow--inject-129-2" data-name="freepik--shadow--inject-129" class="cls-2" d="M138.9,407.94l53.36,30.9a6.61,6.61,0,0,0,6,0L355.9,348c1.66-1,1.66-2.5,0-3.46l-53.37-30.9a6.61,6.61,0,0,0-6,0L138.9,404.49C137.25,405.44,137.24,407,138.9,407.94Z" transform="translate(-12.47 -40.59)"/><g id="freepik--keyboard--inject-129-2" data-name="freepik--keyboard--inject-129"><path class="cls-3" d="M352.67,339a2.1,2.1,0,0,0-1.24-1.73L301.3,308.34a6.61,6.61,0,0,0-6,0l-153,88.46a2.12,2.12,0,0,0-1.23,1.73v5.26a2.07,2.07,0,0,0,1.24,1.72l50.11,28.94a6.61,6.61,0,0,0,6,0l153-88.33a2.1,2.1,0,0,0,1.24-1.72Z" transform="translate(-12.47 -40.59)"/><path class="cls-10" d="M352.67,339a2.1,2.1,0,0,0-1.24-1.73L301.3,308.34a6.61,6.61,0,0,0-6,0l-153,88.46a2.12,2.12,0,0,0-1.23,1.73v5.26a2.07,2.07,0,0,0,1.24,1.72l50.11,28.94a6.61,6.61,0,0,0,6,0l153-88.33a2.1,2.1,0,0,0,1.24-1.72Z" transform="translate(-12.47 -40.59)"/><path class="cls-3" d="M192.45,429.07l-50.11-28.81c-1.65-.95-1.66-2.49,0-3.45l153-88.46a6.61,6.61,0,0,1,6,0l50.13,28.94c1.65,1,1.65,2.5,0,3.46l-153,88.33A6.62,6.62,0,0,1,192.45,429.07Z" transform="translate(-12.47 -40.59)"/><path class="cls-6" d="M192.45,429.07l-50.11-28.81c-1.65-.95-1.66-2.49,0-3.45l153-88.46a6.61,6.61,0,0,1,6,0l50.13,28.94c1.65,1,1.65,2.5,0,3.46l-153,88.33A6.62,6.62,0,0,1,192.45,429.07Z" transform="translate(-12.47 -40.59)"/><path class="cls-3" d="M195.25,429.78v5.38a6.37,6.37,0,0,1-2.81-.69l-50.09-28.94a2.11,2.11,0,0,1-1.25-1.73v-5.27a2.13,2.13,0,0,0,1.25,1.73l50.09,28.82A6.25,6.25,0,0,0,195.25,429.78Z" transform="translate(-12.47 -40.59)"/><path class="cls-5" d="M195.25,429.78v5.38a6.37,6.37,0,0,1-2.81-.69l-50.09-28.94a2.11,2.11,0,0,1-1.25-1.73v-5.27a2.13,2.13,0,0,0,1.25,1.73l50.09,28.82A6.25,6.25,0,0,0,195.25,429.78Z" transform="translate(-12.47 -40.59)"/><path class="cls-13" d="M259.24,345.6l5.71,3.3a.78.78,0,0,0,.37.09l5.26-2.93-6.14-3.46Z" transform="translate(-12.47 -40.59)"/><path class="cls-13" d="M266.11,341.64l5.74,3.31a.67.67,0,0,0,.34.07h.21l5.05-2.92-6.14-3.45Z" transform="translate(-12.47 -40.59)"/><path class="cls-13" d="M247.67,352.29l5.73,3.31a.8.8,0,0,0,.34.07l8.52-4.81-6.14-3.45Z" transform="translate(-12.47 -40.59)"/><path class="cls-13" d="M240.8,356.26l5.72,3.3a.85.85,0,0,0,.35.08l5.27-2.93L246,353.26Z" transform="translate(-12.47 -40.59)"/><path class="cls-13" d="M209.4,408.18l5.27-2.93-6.14-3.45-5.2,3,5.73,3.32A1,1,0,0,0,209.4,408.18Z" transform="translate(-12.47 -40.59)"/><path class="cls-13" d="M233.92,360.22l5.71,3.3a.78.78,0,0,0,.37.09l5.26-2.93-6.14-3.46Z" transform="translate(-12.47 -40.59)"/><path class="cls-13" d="M272.21,347.09l-5.2,3,5.72,3.3a.62.62,0,0,0,.35.08l5.27-2.93Z" transform="translate(-12.47 -40.59)"/><path class="cls-13" d="M253,374l5.27-2.93-6.15-3.45-5.2,3,5.73,3.31A.71.71,0,0,0,253,374Z" transform="translate(-12.47 -40.59)"/><path class="cls-13" d="M280,349.51l5.26-2.93-6.14-3.46-5.2,3,5.74,3.31A.77.77,0,0,0,280,349.51Z" transform="translate(-12.47 -40.59)"/><path class="cls-13" d="M246.13,378l5.26-2.93-6.14-3.46-5.2,3,5.71,3.3A.78.78,0,0,0,246.13,378Z" transform="translate(-12.47 -40.59)"/><path class="cls-13" d="M239.26,382l5.26-2.93-6.14-3.46-5.2,3,5.73,3.31A.85.85,0,0,0,239.26,382Z" transform="translate(-12.47 -40.59)"/><path class="cls-13" d="M266.74,366.1l11.05-6.27-13.9-7.94L258,355.31l7.27,4.19a.35.35,0,0,1,.21.3.33.33,0,0,1-.18.27l-4.59,2.65,5.7,3.29A.63.63,0,0,0,266.74,366.1Z" transform="translate(-12.47 -40.59)"/><path class="cls-13" d="M220.18,368.16l5.73,3.31a.67.67,0,0,0,.34.07l5.27-2.93-6.15-3.45Z" transform="translate(-12.47 -40.59)"/><path class="cls-13" d="M259.87,370.07l5.27-2.93L259,363.69l-5.2,3,5.69,3.28A.75.75,0,0,0,259.87,370.07Z" transform="translate(-12.47 -40.59)"/><path class="cls-13" d="M181.57,406.31l5.27-2.93-6.15-3.46-5.2,3,5.71,3.29A.79.79,0,0,0,181.57,406.31Z" transform="translate(-12.47 -40.59)"/><path class="cls-13" d="M165.2,399.9l5.74,3.32a.75.75,0,0,0,.33.07h.21l5.06-2.92-6.15-3.45Z" transform="translate(-12.47 -40.59)"/><path class="cls-13" d="M191.15,409.75h.21l5-2.92-6.14-3.45-5.2,3,5.74,3.31A.86.86,0,0,0,191.15,409.75Z" transform="translate(-12.47 -40.59)"/><path class="cls-13" d="M195.66,416.11l5.27-2.93-6.15-3.45-5.2,3,5.71,3.29A.6.6,0,0,0,195.66,416.11Z" transform="translate(-12.47 -40.59)"/><path class="cls-13" d="M172.07,395.93l5.73,3.32a1,1,0,0,0,.34.07l5.27-2.93-6.15-3.45Z" transform="translate(-12.47 -40.59)"/><path class="cls-13" d="M202.53,412.15l5.26-2.94-6.14-3.45-5.19,3,5.73,3.31A.81.81,0,0,0,202.53,412.15Z" transform="translate(-12.47 -40.59)"/><path class="cls-13" d="M192.69,384l5.72,3.31a.84.84,0,0,0,.35.07l5.27-2.92L197.88,381Z" transform="translate(-12.47 -40.59)"/><path class="cls-13" d="M199.56,380.06l5.71,3.3a.74.74,0,0,0,.36.09l5.27-2.93-6.14-3.46Z" transform="translate(-12.47 -40.59)"/><path class="cls-13" d="M206.43,376.09l5.7,3.3a.78.78,0,0,0,.37.09l5.27-2.93-6.14-3.45Z" transform="translate(-12.47 -40.59)"/><path class="cls-13" d="M185.81,388l5.71,3.29a.75.75,0,0,0,.36.1l5.28-2.94L191,385Z" transform="translate(-12.47 -40.59)"/><path class="cls-13" d="M213.31,372.13l5.73,3.31a.8.8,0,0,0,.34.07l5.27-2.93-6.15-3.45Z" transform="translate(-12.47 -40.59)"/><path class="cls-13" d="M178.94,392l5.73,3.3a.85.85,0,0,0,.35.08l5.26-2.93L184.14,389Z" transform="translate(-12.47 -40.59)"/><path class="cls-13" d="M227.05,364.19l5.74,3.32a.75.75,0,0,0,.33.07l5.27-2.93-6.14-3.46Z" transform="translate(-12.47 -40.59)"/><path class="cls-13" d="M244.22,363.25l5.71,3.29a.78.78,0,0,0,.37.09h.21l5.05-2.92-6.14-3.45Z" transform="translate(-12.47 -40.59)"/><path class="cls-13" d="M281.31,332.87l5.71,3.29a.74.74,0,0,0,.36.09l5.27-2.93-6.15-3.45Z" transform="translate(-12.47 -40.59)"/><path class="cls-13" d="M288.18,328.9l5.71,3.29a.74.74,0,0,0,.36.09l5.27-2.93-6.14-3.45Z" transform="translate(-12.47 -40.59)"/><path class="cls-13" d="M237.35,367.21l5.71,3.3a.74.74,0,0,0,.36.09l5.27-2.93-6.14-3.46Z" transform="translate(-12.47 -40.59)"/><path class="cls-13" d="M295.05,324.93l5.71,3.3a.74.74,0,0,0,.36.09l5.27-2.94-6.14-3.45Z" transform="translate(-12.47 -40.59)"/><path class="cls-13" d="M257.17,362.66h.21l5.05-2.92-6.14-3.45-5.2,3,5.71,3.29A.77.77,0,0,0,257.17,362.66Z" transform="translate(-12.47 -40.59)"/><path class="cls-13" d="M289.07,337.35l5.7,3.29a.86.86,0,0,0,.38.1l5.26-2.93-6.14-3.46Z" transform="translate(-12.47 -40.59)"/><path class="cls-13" d="M302.82,329.41l5.7,3.29a.69.69,0,0,0,.37.1l5.27-2.93L308,326.42Z" transform="translate(-12.47 -40.59)"/><path class="cls-13" d="M302,336.77l5.27-2.93-6.15-3.46-5.2,3,5.73,3.31A.85.85,0,0,0,302,336.77Z" transform="translate(-12.47 -40.59)"/><path class="cls-13" d="M323.21,333.25a.88.88,0,0,0,.32.07h.22l5.05-2.91-13.91-7.94-5.2,3Z" transform="translate(-12.47 -40.59)"/><path class="cls-13" d="M230.47,371.18l5.72,3.3a.74.74,0,0,0,.36.09h.21l5.06-2.91-6.15-3.46Z" transform="translate(-12.47 -40.59)"/><path class="cls-13" d="M309.79,341.25H310l5.05-2.92-6.14-3.45-5.2,3,5.71,3.29A.77.77,0,0,0,309.79,341.25Z" transform="translate(-12.47 -40.59)"/><path class="cls-13" d="M316.66,337.28l5.27-2.93-6.15-3.45-5.2,3,5.7,3.29A.85.85,0,0,0,316.66,337.28Z" transform="translate(-12.47 -40.59)"/><path class="cls-13" d="M196.11,391l5.71,3.29a.79.79,0,0,0,.37.1l5.26-2.93L201.31,388Z" transform="translate(-12.47 -40.59)"/><path class="cls-13" d="M182.37,399l5.7,3.29a.78.78,0,0,0,.37.09h.21l5.06-2.92L187.56,396Z" transform="translate(-12.47 -40.59)"/><path class="cls-13" d="M204.89,401.82l5.27-2.93L204,395.43l-5.19,3,5.74,3.31A.66.66,0,0,0,204.89,401.82Z" transform="translate(-12.47 -40.59)"/><path class="cls-13" d="M198,405.78l5.27-2.93-6.15-3.45-5.2,3,5.74,3.31A.67.67,0,0,0,198,405.78Z" transform="translate(-12.47 -40.59)"/><path class="cls-13" d="M211.76,397.85H212l5.05-2.91-6.14-3.46-5.2,3,5.7,3.29A.67.67,0,0,0,211.76,397.85Z" transform="translate(-12.47 -40.59)"/><path class="cls-13" d="M223.6,375.15l5.72,3.3a.76.76,0,0,0,.36.08h.21l5.05-2.92-6.14-3.45Z" transform="translate(-12.47 -40.59)"/><path class="cls-13" d="M225.51,389.91l5.27-2.93-6.15-3.45-5.2,3,5.71,3.29A.78.78,0,0,0,225.51,389.91Z" transform="translate(-12.47 -40.59)"/><path class="cls-13" d="M218.64,393.88,223.9,391l-6.14-3.45-5.2,3,5.74,3.32A.78.78,0,0,0,218.64,393.88Z" transform="translate(-12.47 -40.59)"/><path class="cls-13" d="M209.86,383.09l5.7,3.29a.78.78,0,0,0,.37.09l5.27-2.93-6.14-3.45Z" transform="translate(-12.47 -40.59)"/><path class="cls-13" d="M189.24,395l5.7,3.29a.85.85,0,0,0,.38.09l5.26-2.93L194.44,392Z" transform="translate(-12.47 -40.59)"/><path class="cls-13" d="M216.73,379.12l5.71,3.29a.78.78,0,0,0,.37.09l5.26-2.93-6.14-3.45Z" transform="translate(-12.47 -40.59)"/><path class="cls-13" d="M203,387.05l5.7,3.3a.78.78,0,0,0,.37.09h.21l5.06-2.91-6.15-3.46Z" transform="translate(-12.47 -40.59)"/><path class="cls-13" d="M232.38,385.94l5.27-2.93-6.15-3.45-5.19,3,5.72,3.3A.62.62,0,0,0,232.38,385.94Z" transform="translate(-12.47 -40.59)"/><path class="cls-13" d="M273,337.67l5.73,3.31a.8.8,0,0,0,.34.07l5.27-2.93-6.15-3.45Z" transform="translate(-12.47 -40.59)"/><path class="cls-13" d="M163.52,400.87l-5.2,3,5.74,3.31a.67.67,0,0,0,.34.07h.21l5.06-2.92Z" transform="translate(-12.47 -40.59)"/><path class="cls-13" d="M173.82,403.89l-7.73,4.46,5.74,3.32a.75.75,0,0,0,.33.07h.22l7.58-4.38Z" transform="translate(-12.47 -40.59)"/><path class="cls-13" d="M155.18,394.8l-6.29,3.63,5.72,3.29a.74.74,0,0,0,.36.09l6.35-3.55Z" transform="translate(-12.47 -40.59)"/><path class="cls-13" d="M187.91,413.7l-6.28,3.63,5.7,3.29a.78.78,0,0,0,.37.09l6.35-3.56Z" transform="translate(-12.47 -40.59)"/><path class="cls-13" d="M183.39,407.34l-9.53,5.5,5.73,3.31a.8.8,0,0,0,.34.07h.21l9.4-5.42Z" transform="translate(-12.47 -40.59)"/><path class="cls-13" d="M165.92,395.49l5.26-2.93L165,389.11l-5.2,3,5.71,3.3A.74.74,0,0,0,165.92,395.49Z" transform="translate(-12.47 -40.59)"/><path class="cls-13" d="M189.39,421.81l5.71,3.3a.9.9,0,0,0,.36.08l7.8-4.39-6.14-3.45Z" transform="translate(-12.47 -40.59)"/><path class="cls-13" d="M172.79,391.52l5.27-2.93-6.15-3.45-5.19,3,5.73,3.31A.8.8,0,0,0,172.79,391.52Z" transform="translate(-12.47 -40.59)"/><path class="cls-13" d="M203.27,373.93h.21l5.06-2.92-6.15-3.45-5.19,3,5.71,3.3A.75.75,0,0,0,203.27,373.93Z" transform="translate(-12.47 -40.59)"/><path class="cls-13" d="M210.14,370l5.27-2.93-6.14-3.46-5.2,3,5.72,3.3A.73.73,0,0,0,210.14,370Z" transform="translate(-12.47 -40.59)"/><path class="cls-13" d="M196.4,377.89h.21l5-2.92-6.14-3.45-5.2,3L196,377.8A.7.7,0,0,0,196.4,377.89Z" transform="translate(-12.47 -40.59)"/><path class="cls-13" d="M186.53,383.59h.22l5.05-2.91-6.14-3.46-5.2,3,5.72,3.3A.61.61,0,0,0,186.53,383.59Z" transform="translate(-12.47 -40.59)"/><path class="cls-13" d="M179.66,387.56l5.27-2.93-6.14-3.46-5.2,3,5.73,3.31A.77.77,0,0,0,179.66,387.56Z" transform="translate(-12.47 -40.59)"/><path class="cls-13" d="M326.13,342.87l5.74,3.32a.92.92,0,0,0,.33.06h.21l5-2.92-6.14-3.45Z" transform="translate(-12.47 -40.59)"/><path class="cls-13" d="M290.31,363.54l5.7,3.29a.69.69,0,0,0,.37.1l5.27-2.93-6.14-3.46Z" transform="translate(-12.47 -40.59)"/><path class="cls-13" d="M312.38,350.81l5.71,3.29a.74.74,0,0,0,.36.09h.21l11.93-6.89-6.14-3.45Z" transform="translate(-12.47 -40.59)"/><path class="cls-13" d="M297.18,359.58l5.7,3.28a.72.72,0,0,0,.38.1l5.27-2.93-6.15-3.45Z" transform="translate(-12.47 -40.59)"/><path class="cls-13" d="M304.06,355.61l5.68,3.27a.6.6,0,0,0,.39.11l5.27-2.93-6.15-3.45Z" transform="translate(-12.47 -40.59)"/><path class="cls-13" d="M217,366h.22l5.05-2.92-6.14-3.46-5.2,3,5.7,3.29A.78.78,0,0,0,217,366Z" transform="translate(-12.47 -40.59)"/><path class="cls-13" d="M330.43,331.41l-5.2,3,13.51,7.8a.75.75,0,0,0,.33.07h.21l5.05-2.92Z" transform="translate(-12.47 -40.59)"/><path class="cls-13" d="M206.76,411.79l5.7,3.29a.78.78,0,0,0,.37.09l6.35-3.56L213,408.16Z" transform="translate(-12.47 -40.59)"/><path class="cls-13" d="M214.71,407.19l5.7,3.29a.75.75,0,0,0,.38.1H221L260.06,388l-6.15-3.46Z" transform="translate(-12.47 -40.59)"/><path class="cls-13" d="M216.27,404.21l5.27-2.93-6.14-3.45-5.2,3,5.73,3.3A.81.81,0,0,0,216.27,404.21Z" transform="translate(-12.47 -40.59)"/><path class="cls-13" d="M198.8,416.38l5.7,3.29a.79.79,0,0,0,.37.1l6.35-3.56-6.14-3.46Z" transform="translate(-12.47 -40.59)"/><path class="cls-13" d="M255.59,383.59l5.71,3.3a.74.74,0,0,0,.36.09h.22l6.13-3.54L261.87,380Z" transform="translate(-12.47 -40.59)"/><path class="cls-13" d="M271.5,374.4l5.73,3.31a.72.72,0,0,0,.35.08h.21l6.14-3.54-6.14-3.46Z" transform="translate(-12.47 -40.59)"/><path class="cls-13" d="M263.54,379l5.74,3.31a.8.8,0,0,0,.34.07l6.35-3.56-6.14-3.45Z" transform="translate(-12.47 -40.59)"/><path class="cls-13" d="M279.46,369.81l5.71,3.29a.78.78,0,0,0,.37.09h.21l7.58-4.38-6.14-3.45Z" transform="translate(-12.47 -40.59)"/><path class="cls-13" d="M286.83,345.54H287l5.06-2.91-6.1-3.48-5.2,3,5.73,3.31A.79.79,0,0,0,286.83,345.54Z" transform="translate(-12.47 -40.59)"/><path class="cls-13" d="M295.49,358.48h.21l5.06-2.92-6.14-3.45-5.2,3,5.72,3.31A.7.7,0,0,0,295.49,358.48Z" transform="translate(-12.47 -40.59)"/><path class="cls-13" d="M271.26,372.47l14.31-8.16-6.15-3.45-14.24,8.22,5.74,3.31A.66.66,0,0,0,271.26,372.47Z" transform="translate(-12.47 -40.59)"/><path class="cls-13" d="M310.68,349.7h.22l5.05-2.92-6.14-3.45-5.2,3,5.73,3.31A.66.66,0,0,0,310.68,349.7Z" transform="translate(-12.47 -40.59)"/><path class="cls-13" d="M317.56,345.74h.21l5.05-2.91-6.14-3.46-5.2,3,5.72,3.31A.74.74,0,0,0,317.56,345.74Z" transform="translate(-12.47 -40.59)"/><path class="cls-13" d="M264.38,376.44l5.27-2.93-6.14-3.46-5.2,3,5.71,3.3A.74.74,0,0,0,264.38,376.44Z" transform="translate(-12.47 -40.59)"/><path class="cls-13" d="M302.92,345.22h.21l5.05-2.92L302,338.84l-5.2,3,5.7,3.28A.69.69,0,0,0,302.92,345.22Z" transform="translate(-12.47 -40.59)"/><path class="cls-13" d="M230,396.27l5.27-2.93-6.15-3.45-5.19,3,5.73,3.31A.67.67,0,0,0,230,396.27Z" transform="translate(-12.47 -40.59)"/><path class="cls-13" d="M257.51,380.4l5.27-2.93L256.63,374l-5.19,3,5.74,3.32A.94.94,0,0,0,257.51,380.4Z" transform="translate(-12.47 -40.59)"/><path class="cls-13" d="M223.15,400.24h.21l5-2.92-6.14-3.45-5.2,3,5.74,3.31A.66.66,0,0,0,223.15,400.24Z" transform="translate(-12.47 -40.59)"/><path class="cls-13" d="M236.89,392.31l5.27-2.93L236,385.92l-5.2,3,5.75,3.32A.8.8,0,0,0,236.89,392.31Z" transform="translate(-12.47 -40.59)"/><path class="cls-13" d="M243.77,388.34H244l5.05-2.92L242.89,382l-5.2,3,5.71,3.3A.68.68,0,0,0,243.77,388.34Z" transform="translate(-12.47 -40.59)"/><path class="cls-13" d="M250.64,384.37h.21l5.06-2.92L249.76,378l-5.2,3,5.74,3.31A1,1,0,0,0,250.64,384.37Z" transform="translate(-12.47 -40.59)"/><path class="cls-13" d="M233.75,356.33,239,353.4l-6.15-3.46-5.2,3,5.71,3.29A.67.67,0,0,0,233.75,356.33Z" transform="translate(-12.47 -40.59)"/><path class="cls-13" d="M324.43,341.77h.21l5.06-2.91-6.15-3.46-5.2,3,5.74,3.32A.78.78,0,0,0,324.43,341.77Z" transform="translate(-12.47 -40.59)"/><path class="cls-13" d="M247.5,348.39l5.26-2.93L246.62,342l-5.2,3,5.7,3.29A.75.75,0,0,0,247.5,348.39Z" transform="translate(-12.47 -40.59)"/><path class="cls-13" d="M262.76,339.58l5.27-2.93-6.15-3.46-5.19,3,5.71,3.3A.74.74,0,0,0,262.76,339.58Z" transform="translate(-12.47 -40.59)"/><path class="cls-13" d="M255.89,343.55l5.26-2.93L255,337.16l-5.2,3,5.71,3.3A.85.85,0,0,0,255.89,343.55Z" transform="translate(-12.47 -40.59)"/><path class="cls-13" d="M226.88,360.3l5.27-2.94L226,353.91l-5.19,3,5.71,3.3A.74.74,0,0,0,226.88,360.3Z" transform="translate(-12.47 -40.59)"/><path class="cls-13" d="M240.62,352.36h.22l5-2.92L239.75,346l-5.2,3,5.7,3.29A.79.79,0,0,0,240.62,352.36Z" transform="translate(-12.47 -40.59)"/><path class="cls-13" d="M269.63,335.61l5.27-2.93-6.14-3.45-5.2,3,5.71,3.29A.74.74,0,0,0,269.63,335.61Z" transform="translate(-12.47 -40.59)"/><path class="cls-13" d="M296.58,317.75l5.26-2.93L298.5,313l-5.2,3,2.92,1.65A.88.88,0,0,0,296.58,317.75Z" transform="translate(-12.47 -40.59)"/><path class="cls-13" d="M308,324.35l5.27-2.93L307.12,318l-5.2,3,5.71,3.3A.78.78,0,0,0,308,324.35Z" transform="translate(-12.47 -40.59)"/><path class="cls-13" d="M276,329.66h.21l5.05-2.92-3.34-1.8-5.2,3,2.91,1.65A.94.94,0,0,0,276,329.66Z" transform="translate(-12.47 -40.59)"/><path class="cls-13" d="M282.83,325.69H283l5-2.91L284.76,321l-5.2,3,2.93,1.65A.8.8,0,0,0,282.83,325.69Z" transform="translate(-12.47 -40.59)"/><path class="cls-13" d="M289.7,321.72l5.27-2.93L291.63,317l-5.2,3,2.94,1.66A.92.92,0,0,0,289.7,321.72Z" transform="translate(-12.47 -40.59)"/></g></g></g><g id="freepik--Windows--inject-129"><g class="cls-14"><path class="cls-15" d="M297.52,62.76V211.21a6.82,6.82,0,0,1-3.08,5.34L94.35,332.29a2,2,0,0,1-1,.3,2.54,2.54,0,0,1-.39,0,1.14,1.14,0,0,1-.26-.09l-.17-.1-.18-.12a.8.8,0,0,1-.17-.15,2.43,2.43,0,0,1-.57-.81,4,4,0,0,1-.32-1.56V182a6.85,6.85,0,0,1,3.09-5.35L294.44,61a2.25,2.25,0,0,1,2.07-.26,1.82,1.82,0,0,1,.27.15h0a.8.8,0,0,1,.2.21.31.31,0,0,1,.09.11.54.54,0,0,1,.1.16,1.38,1.38,0,0,1,.18.39.89.89,0,0,1,.07.28.06.06,0,0,1,0,.06,1.37,1.37,0,0,1,.05.28A1.13,1.13,0,0,1,297.52,62.76Z" transform="translate(-12.47 -40.59)"/><path class="cls-15" d="M295.81,61.56a.8.8,0,0,1,.3.06h.06l.08.11h0l.08.11v0h0l.09.29h0v149a5.83,5.83,0,0,1-2.58,4.48l-200,115.74a1,1,0,0,1-.52.16h-.28l-.13-.09h0v-.05a1.29,1.29,0,0,1-.33-.47,2.9,2.9,0,0,1-.24-1.16V182a5.78,5.78,0,0,1,2.59-4.48l200-115.68a2,2,0,0,1,.88-.28m0-1a2.77,2.77,0,0,0-1.37.41L94.35,176.66A6.83,6.83,0,0,0,91.26,182V329.7a4,4,0,0,0,.32,1.56,2.43,2.43,0,0,0,.57.81.8.8,0,0,0,.17.15l.18.12.17.1a1.14,1.14,0,0,0,.26.09,2.54,2.54,0,0,0,.39,0h.05a2,2,0,0,0,1-.3L294.44,216.55a6.82,6.82,0,0,0,3.08-5.34V62.37a1.37,1.37,0,0,0,0-.28.06.06,0,0,0,0-.06,1.28,1.28,0,0,0-.07-.28,1.38,1.38,0,0,0-.18-.39.54.54,0,0,0-.1-.16.31.31,0,0,0-.09-.11.8.8,0,0,0-.2-.21h0a1.82,1.82,0,0,0-.27-.15,1.69,1.69,0,0,0-.7-.15Z" transform="translate(-12.47 -40.59)"/><g class="cls-16"><path class="cls-15" d="M297.52,62.76V211.21a6.82,6.82,0,0,1-3.08,5.34L94.35,332.29a2,2,0,0,1-1,.3,2.54,2.54,0,0,1-.39,0,1.14,1.14,0,0,1-.26-.09l-.17-.1-.18-.12a.8.8,0,0,1-.17-.15,2.43,2.43,0,0,1-.57-.81,4,4,0,0,1-.32-1.56V182a6.85,6.85,0,0,1,3.09-5.35L294.44,61a2.25,2.25,0,0,1,2.07-.26,1.82,1.82,0,0,1,.27.15h0a.8.8,0,0,1,.2.21.31.31,0,0,1,.09.11.54.54,0,0,1,.1.16,1.38,1.38,0,0,1,.18.39.89.89,0,0,1,.07.28.06.06,0,0,1,0,.06,1.37,1.37,0,0,1,.05.28A1.13,1.13,0,0,1,297.52,62.76Z" transform="translate(-12.47 -40.59)"/></g></g><path class="cls-3" d="M296.51,60.71a2.25,2.25,0,0,0-2.07.26L94.35,176.66A6.83,6.83,0,0,0,91.26,182v10.08l-3.94-2.31v-10a6.79,6.79,0,0,1,3.08-5.33L290.5,58.75a2.13,2.13,0,0,1,2.24-.18C293.29,58.9,295.85,60.37,296.51,60.71Z" transform="translate(-12.47 -40.59)"/><path class="cls-3" d="M297.52,62.73c0-1.94-1.39-2.73-3.08-1.75L94.34,176.67A6.79,6.79,0,0,0,91.26,182v10.08L297.52,72.85Z" transform="translate(-12.47 -40.59)"/><g class="cls-17"><path class="cls-18" d="M294.44,61,94.35,176.67A6.23,6.23,0,0,0,92.18,179l-3.92-2.26a6.27,6.27,0,0,1,2.14-2.26L290.5,58.75a2.16,2.16,0,0,1,2.24-.19c.55.34,3.11,1.8,3.76,2.15A2.17,2.17,0,0,0,294.44,61Z" transform="translate(-12.47 -40.59)"/></g><path class="cls-19" d="M87.32,189.79v-10a6.35,6.35,0,0,1,.94-3.08L92.19,179a6.17,6.17,0,0,0-.93,3.07v10.08Z" transform="translate(-12.47 -40.59)"/><path class="cls-15" d="M279,74.21a4.61,4.61,0,0,0-1.74,3.69c0,1.48.78,2.23,1.74,1.68a4.61,4.61,0,0,0,1.74-3.69C280.69,74.41,279.91,73.66,279,74.21Z" transform="translate(-12.47 -40.59)"/><path class="cls-15" d="M285.22,70.59a4.59,4.59,0,0,0-1.74,3.68c0,1.48.78,2.23,1.74,1.68A4.58,4.58,0,0,0,287,72.26C287,70.78,286.18,70,285.22,70.59Z" transform="translate(-12.47 -40.59)"/><path class="cls-15" d="M291.49,67a4.58,4.58,0,0,0-1.74,3.69c0,1.48.78,2.23,1.74,1.67a4.58,4.58,0,0,0,1.74-3.69C293.23,67.15,292.45,66.4,291.49,67Z" transform="translate(-12.47 -40.59)"/><path class="cls-20" d="M92.39,332.3l-.38-.22a10,10,0,0,0-1-.53h0l-.52-.29h0l-.81-.46c-.26-.16-.49-.29-.68-.39l-.38-.21a1.57,1.57,0,0,1-.53-.43,2.16,2.16,0,0,1-.41-.62,3.84,3.84,0,0,1-.36-1.63V189.78l3.94,2.31V329.71a4.67,4.67,0,0,0,.32,1.56,2.43,2.43,0,0,0,.57.81.5.5,0,0,0,.17.15Z" transform="translate(-12.47 -40.59)"/><path class="cls-21" d="M158.15,243.47s-7.28-4.71-8.22-4.74l-20.7-.65,8.23,4.38v.36Z" transform="translate(-12.47 -40.59)"/><path class="cls-11" d="M122.67,257.66v-13l35.48-44.11v17.2l-20.69,24.67v.36l20.69.65v17.2Z" transform="translate(-12.47 -40.59)"/><polygon class="cls-15" points="145.68 160 137.46 155.25 101.97 199.37 110.2 204.1 145.68 160"/><polygon class="cls-13" points="101.97 199.37 101.97 212.32 110.2 217.06 110.2 204.1 101.97 199.37"/><path class="cls-11" d="M179.63,252.15l-11,6.36,27.46-100.65,10.62-6.13Z" transform="translate(-12.47 -40.59)"/><polygon class="cls-15" points="194.23 111.14 186 106.39 175.38 112.53 183.6 117.27 194.23 111.14"/><polygon class="cls-13" points="175.38 112.53 183.6 117.27 156.15 217.91 147.92 213.18 175.38 112.53"/><polygon class="cls-21" points="196.47 164.06 204.69 168.81 225.38 143.91 217.16 139.16 196.47 164.06"/><path class="cls-11" d="M237.85,184.5l-20.69-.78v-17.2l35.48,3.14v13l-35.48,44V209.4l20.69-24.54Z" transform="translate(-12.47 -40.59)"/><polygon class="cls-15" points="196.47 121.19 204.69 125.92 240.18 129.06 231.95 124.33 196.47 121.19"/><polyline class="cls-13" points="204.69 125.92 204.69 143.13 196.47 138.38 196.47 121.19"/><polygon class="cls-13" points="196.47 164.06 204.69 168.81 204.69 186 196.47 181.26 196.47 164.06"/><g class="cls-14"><path class="cls-15" d="M362.13,88.36V236.81a6.83,6.83,0,0,1-3.09,5.35l-85.29,49.2a1.89,1.89,0,0,1-1,.3,1.74,1.74,0,0,1-.39-.05l-.27-.09-.16-.1-.18-.12a.8.8,0,0,1-.17-.15,2.43,2.43,0,0,1-.57-.81,4,4,0,0,1-.32-1.56V141.08a6.84,6.84,0,0,1,3.08-5.35L359,86.58a2.24,2.24,0,0,1,2.08-.27,1.4,1.4,0,0,1,.26.16h0a1,1,0,0,1,.2.2.31.31,0,0,1,.09.11.54.54,0,0,1,.1.16,1.23,1.23,0,0,1,.19.4.9.9,0,0,1,.07.27.06.06,0,0,1,0,.06A1.37,1.37,0,0,1,362,88,.81.81,0,0,1,362.13,88.36Z" transform="translate(-12.47 -40.59)"/><path class="cls-15" d="M360.41,87.16a.63.63,0,0,1,.3.07h.06l.09.11h0l.07.12h0l.1.29h0v.07a1.5,1.5,0,0,1,0,.3V236.81a5.82,5.82,0,0,1-2.59,4.48L273.26,290.5a1,1,0,0,1-.52.16h-.28l-.13-.08h0a1.27,1.27,0,0,1-.32-.47,2.9,2.9,0,0,1-.24-1.16V141.08a5.83,5.83,0,0,1,2.58-4.48l85.29-49.15a1.8,1.8,0,0,1,.87-.29m0-1a2.75,2.75,0,0,0-1.37.42l-85.29,49.15a6.84,6.84,0,0,0-3.08,5.35v147.7a4,4,0,0,0,.32,1.56,2.43,2.43,0,0,0,.57.81.8.8,0,0,0,.17.15l.18.12.16.1.27.09a1.74,1.74,0,0,0,.39.05h0a2,2,0,0,0,1-.3L359,242.16a6.85,6.85,0,0,0,3.09-5.35V88a1.37,1.37,0,0,0,0-.28.06.06,0,0,0,0-.06.9.9,0,0,0-.07-.27,1.23,1.23,0,0,0-.19-.4.54.54,0,0,0-.1-.16.31.31,0,0,0-.09-.11,1,1,0,0,0-.2-.2h0a1.4,1.4,0,0,0-.26-.16,1.74,1.74,0,0,0-.71-.15Z" transform="translate(-12.47 -40.59)"/><g class="cls-14"><path class="cls-15" d="M362.13,88.36V236.81a6.83,6.83,0,0,1-3.09,5.35l-85.29,49.2a1.89,1.89,0,0,1-1,.3,1.74,1.74,0,0,1-.39-.05l-.27-.09-.16-.1-.18-.12a.8.8,0,0,1-.17-.15,2.43,2.43,0,0,1-.57-.81,4,4,0,0,1-.32-1.56V141.08a6.84,6.84,0,0,1,3.08-5.35L359,86.58a2.24,2.24,0,0,1,2.08-.27,1.4,1.4,0,0,1,.26.16h0a1,1,0,0,1,.2.2.31.31,0,0,1,.09.11.54.54,0,0,1,.1.16,1.23,1.23,0,0,1,.19.4.9.9,0,0,1,.07.27.06.06,0,0,1,0,.06A1.37,1.37,0,0,1,362,88,.81.81,0,0,1,362.13,88.36Z" transform="translate(-12.47 -40.59)"/></g></g><path class="cls-3" d="M361.12,86.31a2.24,2.24,0,0,0-2.08.27l-85.29,49.15a6.84,6.84,0,0,0-3.08,5.35v10.08l-3.94-2.31v-10a6.79,6.79,0,0,1,3.08-5.33l85.3-49.16a2.16,2.16,0,0,1,2.23-.18C357.9,84.5,360.46,86,361.12,86.31Z" transform="translate(-12.47 -40.59)"/><path class="cls-3" d="M362.12,88.34c0-2-1.38-2.74-3.08-1.76l-85.29,49.16a6.82,6.82,0,0,0-3.08,5.34v10.08l91.45-52.7Z" transform="translate(-12.47 -40.59)"/><g class="cls-17"><path class="cls-18" d="M359,86.58l-85.28,49.16a6.27,6.27,0,0,0-2.18,2.28l-3.91-2.26a6.08,6.08,0,0,1,2.14-2.25L355.1,84.35a2.18,2.18,0,0,1,2.24-.18c.56.34,3.11,1.79,3.76,2.14A2.22,2.22,0,0,0,359,86.58Z" transform="translate(-12.47 -40.59)"/></g><path class="cls-19" d="M266.73,148.86v-10a6.35,6.35,0,0,1,.94-3.08l3.92,2.25a6.29,6.29,0,0,0-.92,3.07v10.08Z" transform="translate(-12.47 -40.59)"/><path class="cls-15" d="M343.55,99.82a4.59,4.59,0,0,0-1.74,3.68c0,1.48.78,2.23,1.74,1.68a4.61,4.61,0,0,0,1.74-3.69C345.29,100,344.51,99.26,343.55,99.82Z" transform="translate(-12.47 -40.59)"/><path class="cls-15" d="M349.82,96.19a4.61,4.61,0,0,0-1.74,3.69c0,1.48.78,2.23,1.74,1.67a4.56,4.56,0,0,0,1.74-3.69C351.56,96.38,350.79,95.63,349.82,96.19Z" transform="translate(-12.47 -40.59)"/><path class="cls-15" d="M356.09,92.56a4.61,4.61,0,0,0-1.74,3.69c0,1.48.78,2.23,1.74,1.67a4.55,4.55,0,0,0,1.75-3.68C357.84,92.76,357.06,92,356.09,92.56Z" transform="translate(-12.47 -40.59)"/><path class="cls-20" d="M271.8,291.37l-.38-.22-.95-.53h0l-.52-.3h0l-.81-.46c-.26-.16-.5-.29-.68-.39l-.38-.21a1.57,1.57,0,0,1-.53-.43,2.16,2.16,0,0,1-.41-.62,3.84,3.84,0,0,1-.36-1.63V148.85l3.94,2.31V288.78a4.67,4.67,0,0,0,.32,1.56,2.43,2.43,0,0,0,.57.81.5.5,0,0,0,.17.15A.19.19,0,0,0,271.8,291.37Z" transform="translate(-12.47 -40.59)"/><path class="cls-3" d="M278.24,159.53a1.29,1.29,0,0,1,.16-.57l2.22-4.59a.26.26,0,0,1,.1-.13v-.05a.15.15,0,0,1,.18,0,.29.29,0,0,1,.07.22V156a1.93,1.93,0,0,1,0,.48,3.61,3.61,0,0,1-.16.42l-1.17,2.42,1.17,1.08a.63.63,0,0,1,.16.23,1.55,1.55,0,0,1,0,.43v1.54a.67.67,0,0,1-.07.31.46.46,0,0,1-.18.21h-.1l-2.22-2a.48.48,0,0,1-.16-.39Z" transform="translate(-12.47 -40.59)"/><path class="cls-3" d="M286.35,148a2.2,2.2,0,0,1,.17-.45.75.75,0,0,1,.33-.35l.83-.48a.12.12,0,0,1,.17,0h0a.27.27,0,0,1,.08.22.49.49,0,0,1,0,.17l-3.8,16.2a1.79,1.79,0,0,1-.16.44.75.75,0,0,1-.33.37l-.8.46a.14.14,0,0,1-.17,0,.32.32,0,0,1-.08-.23v-.17Z" transform="translate(-12.47 -40.59)"/><path class="cls-3" d="M292.23,152.6a1.27,1.27,0,0,1-.15.57l-2.22,4.59a.71.71,0,0,1-.1.14h-.06a.14.14,0,0,1-.17,0,.32.32,0,0,1-.07-.23v-1.54a1.28,1.28,0,0,1,.16-.9l1.17-2.42-1.17-1.07a.78.78,0,0,1-.16-.24,1.55,1.55,0,0,1,0-.43v-1.54a.67.67,0,0,1,.07-.31.58.58,0,0,1,.17-.21h.16l2.22,2a.46.46,0,0,1,.15.4Z" transform="translate(-12.47 -40.59)"/><path class="cls-3" d="M298.39,151.53a.18.18,0,0,1,.22,0,.37.37,0,0,1,.09.28v1.69a.85.85,0,0,1-.09.38.53.53,0,0,1-.22.27l-1,.6a.14.14,0,0,1-.21,0,.33.33,0,0,1-.09-.27v-1.7a.85.85,0,0,1,.09-.38.54.54,0,0,1,.21-.26Z" transform="translate(-12.47 -40.59)"/><path class="cls-3" d="M301.89,149.52a.18.18,0,0,1,.22,0,.37.37,0,0,1,.09.28v1.69a.85.85,0,0,1-.09.38.53.53,0,0,1-.22.27l-1,.6a.18.18,0,0,1-.22,0,.37.37,0,0,1-.09-.28v-1.7a.85.85,0,0,1,.09-.38.51.51,0,0,1,.22-.26Z" transform="translate(-12.47 -40.59)"/><path class="cls-3" d="M305.39,147.5a.15.15,0,0,1,.21,0,.37.37,0,0,1,.09.28v1.69a.86.86,0,0,1-.09.39.75.75,0,0,1-.21.26l-1.05.6a.17.17,0,0,1-.21,0,.37.37,0,0,1-.09-.28v-1.7a.85.85,0,0,1,.09-.38.75.75,0,0,1,.21-.26Z" transform="translate(-12.47 -40.59)"/><path class="cls-3" d="M279.18,171.9l51.24-29.58c.61-.35,1.1-.1,1.1.55a2.33,2.33,0,0,1-1.1,1.82l-51.24,29.59c-.61.35-1.1.1-1.1-.56A2.35,2.35,0,0,1,279.18,171.9Z" transform="translate(-12.47 -40.59)"/><path class="cls-2" d="M295.62,190.89l51.24-29.59c.61-.35,1.1-.1,1.1.56a2.35,2.35,0,0,1-1.1,1.82l-51.24,29.58c-.61.35-1.1.1-1.1-.55A2.33,2.33,0,0,1,295.62,190.89Z" transform="translate(-12.47 -40.59)"/><path class="cls-2" d="M295.62,200.38l24.53-14.15c.6-.35,1.09-.1,1.09.56a2.32,2.32,0,0,1-1.09,1.81l-24.53,14.16c-.61.34-1.1.1-1.1-.56A2.35,2.35,0,0,1,295.62,200.38Z" transform="translate(-12.47 -40.59)"/><path class="cls-2" d="M295.62,209.87l24.53-14.15c.6-.34,1.09-.1,1.09.56a2.38,2.38,0,0,1-1.09,1.82l-24.53,14.15c-.61.35-1.1.1-1.1-.56A2.35,2.35,0,0,1,295.62,209.87Z" transform="translate(-12.47 -40.59)"/><path class="cls-3" d="M334.67,139.87,355.08,128c.61-.35,1.1-.1,1.1.55a2.33,2.33,0,0,1-1.1,1.82L334.67,142.2c-.61.35-1.1.1-1.1-.55A2.35,2.35,0,0,1,334.67,139.87Z" transform="translate(-12.47 -40.59)"/><path class="cls-3" d="M279.18,276.31l51.24-29.58c.61-.35,1.1-.1,1.1.55a2.33,2.33,0,0,1-1.1,1.82l-51.24,29.59c-.61.34-1.1.1-1.1-.56A2.35,2.35,0,0,1,279.18,276.31Z" transform="translate(-12.47 -40.59)"/><path class="cls-3" d="M334.67,244.27l20.41-11.83c.61-.35,1.1-.1,1.1.56a2.35,2.35,0,0,1-1.1,1.82l-20.41,11.83c-.61.35-1.1.1-1.1-.56A2.35,2.35,0,0,1,334.67,244.27Z" transform="translate(-12.47 -40.59)"/><path class="cls-3" d="M334.67,215.85,355.08,204c.61-.35,1.1-.1,1.1.55a2.33,2.33,0,0,1-1.1,1.82L334.67,218.2c-.61.35-1.1.1-1.1-.55A2.34,2.34,0,0,1,334.67,215.85Z" transform="translate(-12.47 -40.59)"/><path class="cls-3" d="M334.67,225.34l20.41-11.83c.61-.35,1.1-.1,1.1.55a2.33,2.33,0,0,1-1.1,1.82l-20.41,11.83c-.61.35-1.1.1-1.1-.55A2.33,2.33,0,0,1,334.67,225.34Z" transform="translate(-12.47 -40.59)"/><path class="cls-22" d="M279.18,266.83l51.24-29.59c.61-.34,1.1-.1,1.1.56a2.35,2.35,0,0,1-1.1,1.82L279.18,269.2c-.61.35-1.1.1-1.1-.55A2.33,2.33,0,0,1,279.18,266.83Z" transform="translate(-12.47 -40.59)"/><path class="cls-3" d="M317.26,225.87l11.47-6.62c.6-.35,1.09-.1,1.09.55a2.34,2.34,0,0,1-1.09,1.82l-11.47,6.62c-.61.35-1.1.11-1.1-.55A2.33,2.33,0,0,1,317.26,225.87Z" transform="translate(-12.47 -40.59)"/><path class="cls-3" d="M279.18,181.42l29.89-17.27c.6-.35,1.09-.1,1.09.55a2.34,2.34,0,0,1-1.09,1.82l-29.89,17.27c-.61.35-1.1.1-1.1-.55A2.33,2.33,0,0,1,279.18,181.42Z" transform="translate(-12.47 -40.59)"/><path class="cls-23" d="M279.18,181.42l29.89-17.27c.6-.35,1.09-.1,1.09.55a2.34,2.34,0,0,1-1.09,1.82l-29.89,17.27c-.61.35-1.1.1-1.1-.55A2.33,2.33,0,0,1,279.18,181.42Z" transform="translate(-12.47 -40.59)"/><path class="cls-3" d="M279.18,190.89,289.32,185c.6-.35,1.09-.1,1.09.56a2.38,2.38,0,0,1-1.09,1.82l-10.14,5.86c-.61.35-1.1.1-1.1-.56A2.33,2.33,0,0,1,279.18,190.89Z" transform="translate(-12.47 -40.59)"/><path class="cls-23" d="M279.18,190.89,289.32,185c.6-.35,1.09-.1,1.09.56a2.38,2.38,0,0,1-1.09,1.82l-10.14,5.86c-.61.35-1.1.1-1.1-.56A2.33,2.33,0,0,1,279.18,190.89Z" transform="translate(-12.47 -40.59)"/><path class="cls-3" d="M279.18,200.39l10.14-5.87c.6-.35,1.09-.1,1.09.56a2.38,2.38,0,0,1-1.09,1.82l-10.14,5.86c-.61.35-1.1.1-1.1-.56A2.29,2.29,0,0,1,279.18,200.39Z" transform="translate(-12.47 -40.59)"/><path class="cls-23" d="M279.18,200.39l10.14-5.87c.6-.35,1.09-.1,1.09.56a2.38,2.38,0,0,1-1.09,1.82l-10.14,5.86c-.61.35-1.1.1-1.1-.56A2.29,2.29,0,0,1,279.18,200.39Z" transform="translate(-12.47 -40.59)"/><path class="cls-3" d="M279.18,209.88,289.32,204c.6-.35,1.09-.11,1.09.55a2.34,2.34,0,0,1-1.09,1.82l-10.14,5.86c-.61.35-1.1.1-1.1-.55A2.34,2.34,0,0,1,279.18,209.88Z" transform="translate(-12.47 -40.59)"/><path class="cls-23" d="M279.18,209.88,289.32,204c.6-.35,1.09-.11,1.09.55a2.34,2.34,0,0,1-1.09,1.82l-10.14,5.86c-.61.35-1.1.1-1.1-.55A2.34,2.34,0,0,1,279.18,209.88Z" transform="translate(-12.47 -40.59)"/><path class="cls-3" d="M279.18,219.37l10.14-5.86c.6-.35,1.09-.1,1.09.55a2.34,2.34,0,0,1-1.09,1.82l-10.14,5.86c-.61.35-1.1.1-1.1-.55A2.33,2.33,0,0,1,279.18,219.37Z" transform="translate(-12.47 -40.59)"/><path class="cls-23" d="M279.18,219.37l10.14-5.86c.6-.35,1.09-.1,1.09.55a2.34,2.34,0,0,1-1.09,1.82l-10.14,5.86c-.61.35-1.1.1-1.1-.55A2.33,2.33,0,0,1,279.18,219.37Z" transform="translate(-12.47 -40.59)"/><path class="cls-3" d="M313.31,161.7l13-7.48c.6-.35,1.1-.1,1.1.55a2.38,2.38,0,0,1-1.1,1.82l-13,7.48c-.6.35-1.09.1-1.09-.55A2.34,2.34,0,0,1,313.31,161.7Z" transform="translate(-12.47 -40.59)"/><path class="cls-23" d="M313.31,161.7l13-7.48c.6-.35,1.1-.1,1.1.55a2.38,2.38,0,0,1-1.1,1.82l-13,7.48c-.6.35-1.09.1-1.09-.55A2.34,2.34,0,0,1,313.31,161.7Z" transform="translate(-12.47 -40.59)"/><path class="cls-22" d="M308,212.23,337.84,195c.6-.35,1.09-.1,1.09.56a2.38,2.38,0,0,1-1.09,1.82L308,214.61c-.6.35-1.1.1-1.1-.56A2.35,2.35,0,0,1,308,212.23Z" transform="translate(-12.47 -40.59)"/><path class="cls-22" d="M325.19,211.81l29.89-17.27c.61-.35,1.1-.1,1.1.55a2.33,2.33,0,0,1-1.1,1.82l-29.89,17.27c-.6.35-1.09.1-1.09-.55A2.34,2.34,0,0,1,325.19,211.81Z" transform="translate(-12.47 -40.59)"/><path class="cls-22" d="M342.09,192.51l13-7.48c.61-.35,1.1-.1,1.1.56a2.35,2.35,0,0,1-1.1,1.82l-13,7.48c-.61.34-1.1.1-1.1-.56A2.35,2.35,0,0,1,342.09,192.51Z" transform="translate(-12.47 -40.59)"/><path class="cls-3" d="M295.62,181.4l29.89-17.27c.6-.35,1.09-.1,1.09.56a2.38,2.38,0,0,1-1.09,1.82l-29.89,17.26c-.61.35-1.1.11-1.1-.55A2.35,2.35,0,0,1,295.62,181.4Z" transform="translate(-12.47 -40.59)"/><path class="cls-23" d="M295.62,181.4l29.89-17.27c.6-.35,1.09-.1,1.09.56a2.38,2.38,0,0,1-1.09,1.82l-29.89,17.26c-.61.35-1.1.11-1.1-.55A2.35,2.35,0,0,1,295.62,181.4Z" transform="translate(-12.47 -40.59)"/><path class="cls-3" d="M329.75,161.68l13-7.48c.61-.35,1.1-.1,1.1.55a2.33,2.33,0,0,1-1.1,1.82l-13,7.48c-.6.35-1.09.1-1.09-.55A2.34,2.34,0,0,1,329.75,161.68Z" transform="translate(-12.47 -40.59)"/><path class="cls-23" d="M329.75,161.68l13-7.48c.61-.35,1.1-.1,1.1.55a2.33,2.33,0,0,1-1.1,1.82l-13,7.48c-.6.35-1.09.1-1.09-.55A2.34,2.34,0,0,1,329.75,161.68Z" transform="translate(-12.47 -40.59)"/></g><g id="freepik--speech-bubbles--inject-129"><path class="cls-3" d="M425.21,95.43V84l-9.61-.83a.62.62,0,0,0-.4.08c-.38.2-9.48,5.41-9.59,5.48a.7.7,0,0,0-.25,1,.94.94,0,0,0,.09.12l10.19,11Z" transform="translate(-12.47 -40.59)"/><path class="cls-3" d="M415.64,100.9,405.45,89.85a.71.71,0,0,1,.58-1.18l9.61.84Z" transform="translate(-12.47 -40.59)"/><path class="cls-3" d="M425.2,84l-9.56,5.48L406,88.67a1,1,0,0,0-.34,0c.77-.45,9.16-5.25,9.5-5.43a.65.65,0,0,1,.41-.08Z" transform="translate(-12.47 -40.59)"/><path class="cls-12" d="M425.2,84l-9.56,5.48L406,88.67a1,1,0,0,0-.34,0c.77-.45,9.16-5.25,9.5-5.43a.65.65,0,0,1,.41-.08Z" transform="translate(-12.47 -40.59)"/><path class="cls-3" d="M415.66,76.67a7.7,7.7,0,0,1,3.46-6L421.94,69a7.63,7.63,0,0,1,6.93,0l30.07,17.4a7.64,7.64,0,0,1,3.47,6v34.74a7.64,7.64,0,0,1-3.47,6l-2.82,1.63a7.69,7.69,0,0,1-6.93,0l-8.87-5.13L428.78,123l-9.66-5.58a7.65,7.65,0,0,1-3.46-6Z" transform="translate(-12.47 -40.59)"/><path class="cls-9" d="M462.41,127.14a7.64,7.64,0,0,1-3.47,6l-2.82,1.63a7.79,7.79,0,0,1-6.34.28c1.64.61,2.88-.31,2.88-2.28V98a7.12,7.12,0,0,0-1-3.42L461.39,89a7.12,7.12,0,0,1,1,3.42Z" transform="translate(-12.47 -40.59)"/><path class="cls-12" d="M415.77,75.68c.41-1.47,1.75-1.94,3.35-1L449.2,92a7,7,0,0,1,2.44,2.59L461.38,89a6.87,6.87,0,0,0-2.44-2.58L428.88,69A7.71,7.71,0,0,0,422,69l-2.83,1.63A7.68,7.68,0,0,0,415.77,75.68Z" transform="translate(-12.47 -40.59)"/><polygon class="cls-15" points="421.69 48.76 410.24 47.16 411.84 68.28 421.69 81.08 421.69 48.76"/><polygon class="cls-13" points="421.69 48.76 433.14 60.38 431.53 79.66 421.69 81.08 421.69 48.76"/><path class="cls-11" d="M438.87,116.84l2.63,1.52-7.32-25.79-7.31,17.34,2.62,1.52,1.58-3.76,6.22,3.59ZM432,105.4l2.16-5.14,2.16,7.64Z" transform="translate(-12.47 -40.59)"/><path class="cls-3" d="M425.21,160.27V148.89l-9.61-.84a.78.78,0,0,0-.4.08c-.38.2-9.48,5.41-9.59,5.48a.71.71,0,0,0-.25,1,1.25,1.25,0,0,0,.09.12l10.19,11Z" transform="translate(-12.47 -40.59)"/><path class="cls-24" d="M415.64,165.74l-10.19-11a.7.7,0,0,1,0-1,.73.73,0,0,1,.56-.19l9.61.84Z" transform="translate(-12.47 -40.59)"/><path class="cls-3" d="M425.2,148.88l-9.56,5.48-9.61-.84a.65.65,0,0,0-.34,0c.77-.46,9.16-5.25,9.5-5.44a.66.66,0,0,1,.41-.08Z" transform="translate(-12.47 -40.59)"/><path class="cls-22" d="M425.2,148.88l-9.56,5.48-9.61-.84a.65.65,0,0,0-.34,0c.77-.46,9.16-5.25,9.5-5.44a.66.66,0,0,1,.41-.08Z" transform="translate(-12.47 -40.59)"/><path class="cls-24" d="M415.66,141.51a7.65,7.65,0,0,1,3.46-6l2.82-1.63a7.63,7.63,0,0,1,6.93,0l30.07,17.36a7.64,7.64,0,0,1,3.47,6V192a7.64,7.64,0,0,1-3.47,6l-2.82,1.63a7.63,7.63,0,0,1-6.93,0l-8.87-5.12-11.54-6.67-9.66-5.57a7.67,7.67,0,0,1-3.46-6Z" transform="translate(-12.47 -40.59)"/><path class="cls-2" d="M462.41,192a7.64,7.64,0,0,1-3.47,6l-2.82,1.63a7.71,7.71,0,0,1-6.34.28c1.64.62,2.88-.3,2.88-2.28V162.87a7,7,0,0,0-1-3.41l9.75-5.63a7,7,0,0,1,1,3.41Z" transform="translate(-12.47 -40.59)"/><path class="cls-22" d="M415.77,140.52c.41-1.47,1.75-1.94,3.35-1l30.08,17.36a7,7,0,0,1,2.44,2.59l9.74-5.62a7,7,0,0,0-2.44-2.59l-30.06-17.37a7.69,7.69,0,0,0-6.93,0l-2.83,1.63A7.69,7.69,0,0,0,415.77,140.52Z" transform="translate(-12.47 -40.59)"/><polygon class="cls-3" points="421.69 122.16 424.21 117.39 433.14 122.56 421.69 144.09 410.24 109.33 419.16 114.47 421.69 122.16"/><polygon class="cls-19" points="421.69 122.16 424.21 117.39 433.14 122.56 421.69 144.09 410.24 109.33 419.16 114.47 421.69 122.16"/><path class="cls-13" d="M434.16,162.75l-2.53-7.67-4-2.3c3.19,9.69,6.51,19.75,6.51,19.75l6.5-12.24-4-2.3Z" transform="translate(-12.47 -40.59)"/><path class="cls-3" d="M425.21,225.12V213.73l-9.61-.84a.78.78,0,0,0-.4.08l-9.59,5.48a.71.71,0,0,0-.25,1,1.25,1.25,0,0,0,.09.12l10.19,11Z" transform="translate(-12.47 -40.59)"/><path class="cls-13" d="M415.64,230.58l-10.19-11a.7.7,0,0,1,0-1,.73.73,0,0,1,.56-.19l9.61.84Z" transform="translate(-12.47 -40.59)"/><path class="cls-3" d="M425.2,213.73l-9.56,5.47-9.61-.84a.65.65,0,0,0-.34,0l9.5-5.44a.84.84,0,0,1,.41-.08Z" transform="translate(-12.47 -40.59)"/><path class="cls-15" d="M425.2,213.73l-9.56,5.47-9.61-.84a.65.65,0,0,0-.34,0l9.5-5.44a.84.84,0,0,1,.41-.08Z" transform="translate(-12.47 -40.59)"/><path class="cls-13" d="M415.66,206.35a7.67,7.67,0,0,1,3.46-6l2.82-1.63a7.69,7.69,0,0,1,6.93,0l30.07,17.36a7.66,7.66,0,0,1,3.47,6v34.73a7.64,7.64,0,0,1-3.47,6l-2.82,1.63a7.63,7.63,0,0,1-6.93,0l-8.87-5.12-11.54-6.67-9.66-5.57a7.65,7.65,0,0,1-3.46-6Z" transform="translate(-12.47 -40.59)"/><path class="cls-21" d="M462.41,256.82a7.64,7.64,0,0,1-3.47,6l-2.82,1.63a7.71,7.71,0,0,1-6.34.28c1.64.62,2.88-.3,2.88-2.28V227.72a7.12,7.12,0,0,0-1-3.42l9.75-5.63a7.12,7.12,0,0,1,1,3.42Z" transform="translate(-12.47 -40.59)"/><path class="cls-15" d="M415.77,205.37c.41-1.47,1.75-1.94,3.35-1l30.08,17.37a6.87,6.87,0,0,1,2.44,2.58l9.74-5.62a7,7,0,0,0-2.44-2.59l-30.06-17.37a7.69,7.69,0,0,0-6.93,0l-2.83,1.64A7.67,7.67,0,0,0,415.77,205.37Z" transform="translate(-12.47 -40.59)"/><path class="cls-3" d="M440.85,232.89c.71-3.6.42-6.91-1-8.79a3.33,3.33,0,0,0-2.72-1.44h-.25a5.41,5.41,0,0,0-2.65,1c-2-3.78-4-6.1-5.43-6.1h-.21a1.3,1.3,0,0,0-.9.68c-.69,1.15-.73,3.64-.21,6.91a5.54,5.54,0,0,0-3.74.27,2.34,2.34,0,0,0-1.16,2.18c0,2.17,1.91,5.15,4.88,8-.71,3.6-.42,6.91,1,8.79a4,4,0,0,0,1.13,1,3.14,3.14,0,0,0,1.58.42,3.77,3.77,0,0,0,1.06-.15,6.35,6.35,0,0,0,1.91-1c1.61,3,3.22,5.17,4.51,5.92a2,2,0,0,0,1,.3h.2a1.32,1.32,0,0,0,.91-.68c.69-1.15.72-3.64.2-6.93a9.42,9.42,0,0,0,1.59.16,4.06,4.06,0,0,0,2.05-.46,2.36,2.36,0,0,0,1.16-2.18C445.73,238.71,443.82,235.73,440.85,232.89Zm-3.43,5.79a19.77,19.77,0,0,1-1.1,1.75c-.66-.32-1.36-.68-2.1-1.11s-1.45-.87-2.12-1.33c-.39-1-.78-2.06-1.15-3.16s-.69-2.12-1-3.12c.28-.62.58-1.24.92-1.85s.72-1.21,1.09-1.75c.67.32,1.37.68,2.11,1.11s1.52.92,2.23,1.4c.39,1,.77,2,1.15,3.15s.65,2,.92,2.94A20.7,20.7,0,0,1,437.42,238.68Zm1-5.11c-.22-.66-.45-1.31-.68-1.94a24.31,24.31,0,0,1,1.89,1.54c-.18.69-.39,1.4-.65,2.11-.2-.56-.38-1.13-.58-1.71Zm-4.18-5.64q-.76-.44-1.5-.81a12.6,12.6,0,0,1,1.42-1.5c.47.95.95,2,1.43,3.13-.46-.28-.91-.56-1.37-.82Zm-4.25.88c-.18.33-.36.66-.52,1-.27-1.05-.5-2-.68-2.95a17.49,17.49,0,0,1,2,.69,8.4,8.4,0,0,0-.79,1.26Zm0,6.22c.23.67.46,1.32.7,2-.71-.53-1.38-1.08-2-1.63.2-.76.43-1.51.7-2.25.2.6.4,1.23.61,1.85Zm4.08,5.58c.51.29,1,.55,1.49.8a12.33,12.33,0,0,1-1.35,1.45c-.46-.92-.92-1.92-1.37-3,.42.25.83.51,1.25.75Zm4.25-.88c.21-.37.4-.74.58-1.12.29,1.1.53,2.14.72,3.1a18.6,18.6,0,0,1-2.06-.72,13.3,13.3,0,0,0,.78-1.26Zm-1.36-10c-.67-1.71-1.37-3.28-2.07-4.69a5.25,5.25,0,0,1,1.67-.84,3.06,3.06,0,0,1,.85-.12,2.21,2.21,0,0,1,1.15.29,2.64,2.64,0,0,1,.68.61c.95,1.26,1.21,3.91.61,7-.91-.8-1.86-1.56-2.85-2.27Zm-5.53-3.19a20.55,20.55,0,0,0-2.93-1.07c-.5-3.1-.44-5.23.06-6.06A.67.67,0,0,1,429,219h.09a1.05,1.05,0,0,1,.54.18c.95.55,2.32,2.33,3.81,5.11a14,14,0,0,0-2,2.23Zm-2.62,4.67a23.43,23.43,0,0,0-1.11,3.28c-2.56-2.48-4.09-4.88-4.09-6.35a1.47,1.47,0,0,1,.76-1.34,3.45,3.45,0,0,1,1.7-.36,8.25,8.25,0,0,1,1.64.19c.29,1.37.66,2.93,1.12,4.56Zm2.61,7.72c.66,1.64,1.34,3.17,2,4.57a4.79,4.79,0,0,1-2.4,1,2.2,2.2,0,0,1-2-.89c-.95-1.27-1.21-3.92-.61-7a35.5,35.5,0,0,0,3,2.3Zm5.42,3.11a21.11,21.11,0,0,0,3,1.1c.51,3.11.45,5.25,0,6.09a.68.68,0,0,1-.45.36c-.91.16-2.62-1.87-4.49-5.4a13.47,13.47,0,0,0,2-2.19Zm2.68-4.8a23.51,23.51,0,0,0,1-3.15c2.56,2.48,4.09,4.88,4.09,6.35a1.49,1.49,0,0,1-.76,1.34,5,5,0,0,1-3.24.19,39.5,39.5,0,0,0-1.07-4.75Z" transform="translate(-12.47 -40.59)"/><path class="cls-3" d="M436.19,235.44c0,1.5-.91,2.19-2,1.54a4.85,4.85,0,0,1-2-3.89c0-1.49.91-2.18,2-1.53A4.87,4.87,0,0,1,436.19,235.44Z" transform="translate(-12.47 -40.59)"/><g class="cls-25"><path class="cls-18" d="M440.85,232.89c.71-3.6.42-6.91-1-8.79a3.33,3.33,0,0,0-2.72-1.44h-.25a5.41,5.41,0,0,0-2.65,1c-2-3.78-4-6.1-5.43-6.1h-.21a1.3,1.3,0,0,0-.9.68c-.69,1.15-.73,3.64-.21,6.91a5.54,5.54,0,0,0-3.74.27,2.34,2.34,0,0,0-1.16,2.18c0,2.17,1.91,5.15,4.88,8-.71,3.6-.42,6.91,1,8.79a4,4,0,0,0,1.13,1,3.14,3.14,0,0,0,1.58.42,3.77,3.77,0,0,0,1.06-.15,6.35,6.35,0,0,0,1.91-1c1.61,3,3.22,5.17,4.51,5.92a2,2,0,0,0,1,.3h.2a1.32,1.32,0,0,0,.91-.68c.69-1.15.72-3.64.2-6.93a9.42,9.42,0,0,0,1.59.16,4.06,4.06,0,0,0,2.05-.46,2.36,2.36,0,0,0,1.16-2.18C445.73,238.71,443.82,235.73,440.85,232.89Zm-3.43,5.79a19.77,19.77,0,0,1-1.1,1.75c-.66-.32-1.36-.68-2.1-1.11s-1.45-.87-2.12-1.33c-.39-1-.78-2.06-1.15-3.16s-.69-2.12-1-3.12c.28-.62.58-1.24.92-1.85s.72-1.21,1.09-1.75c.67.32,1.37.68,2.11,1.11s1.52.92,2.23,1.4c.39,1,.77,2,1.15,3.15s.65,2,.92,2.94A20.7,20.7,0,0,1,437.42,238.68Zm1-5.11c-.22-.66-.45-1.31-.68-1.94a24.31,24.31,0,0,1,1.89,1.54c-.18.69-.39,1.4-.65,2.11-.2-.56-.38-1.13-.58-1.71Zm-4.18-5.64q-.76-.44-1.5-.81a12.6,12.6,0,0,1,1.42-1.5c.47.95.95,2,1.43,3.13-.46-.28-.91-.56-1.37-.82Zm-4.25.88c-.18.33-.36.66-.52,1-.27-1.05-.5-2-.68-2.95a17.49,17.49,0,0,1,2,.69,8.4,8.4,0,0,0-.79,1.26Zm0,6.22c.23.67.46,1.32.7,2-.71-.53-1.38-1.08-2-1.63.2-.76.43-1.51.7-2.25.2.6.4,1.23.61,1.85Zm4.08,5.58c.51.29,1,.55,1.49.8a12.33,12.33,0,0,1-1.35,1.45c-.46-.92-.92-1.92-1.37-3,.42.25.83.51,1.25.75Zm4.25-.88c.21-.37.4-.74.58-1.12.29,1.1.53,2.14.72,3.1a18.6,18.6,0,0,1-2.06-.72,13.3,13.3,0,0,0,.78-1.26Zm-1.36-10c-.67-1.71-1.37-3.28-2.07-4.69a5.25,5.25,0,0,1,1.67-.84,3.06,3.06,0,0,1,.85-.12,2.21,2.21,0,0,1,1.15.29,2.64,2.64,0,0,1,.68.61c.95,1.26,1.21,3.91.61,7-.91-.8-1.86-1.56-2.85-2.27Zm-5.53-3.19a20.55,20.55,0,0,0-2.93-1.07c-.5-3.1-.44-5.23.06-6.06A.67.67,0,0,1,429,219h.09a1.05,1.05,0,0,1,.54.18c.95.55,2.32,2.33,3.81,5.11a14,14,0,0,0-2,2.23Zm-2.62,4.67a23.43,23.43,0,0,0-1.11,3.28c-2.56-2.48-4.09-4.88-4.09-6.35a1.47,1.47,0,0,1,.76-1.34,3.45,3.45,0,0,1,1.7-.36,8.25,8.25,0,0,1,1.64.19c.29,1.37.66,2.93,1.12,4.56Zm2.61,7.72c.66,1.64,1.34,3.17,2,4.57a4.79,4.79,0,0,1-2.4,1,2.2,2.2,0,0,1-2-.89c-.95-1.27-1.21-3.92-.61-7a35.5,35.5,0,0,0,3,2.3Zm5.42,3.11a21.11,21.11,0,0,0,3,1.1c.51,3.11.45,5.25,0,6.09a.68.68,0,0,1-.45.36c-.91.16-2.62-1.87-4.49-5.4a13.47,13.47,0,0,0,2-2.19Zm2.68-4.8a23.51,23.51,0,0,0,1-3.15c2.56,2.48,4.09,4.88,4.09,6.35a1.49,1.49,0,0,1-.76,1.34,5,5,0,0,1-3.24.19,39.5,39.5,0,0,0-1.07-4.75Z" transform="translate(-12.47 -40.59)"/><path class="cls-18" d="M436.19,235.44c0,1.5-.91,2.19-2,1.54a4.85,4.85,0,0,1-2-3.89c0-1.49.91-2.18,2-1.53A4.87,4.87,0,0,1,436.19,235.44Z" transform="translate(-12.47 -40.59)"/></g></g></svg>